<svg width="92" height="91" viewBox="0 0 92 91" fill="none" xmlns="http://www.w3.org/2000/svg">
<g clip-path="url(#clip0)">
<path d="M18.5933 61.8996L20.8362 31.0565C20.8579 30.7588 20.8992 30.4629 20.9599 30.1707C21.7266 26.803 24.8598 24.5169 28.3007 24.8145L38.7849 25.5735L28.6965 64.4464L18.5933 61.8996Z" fill="#35495E"/>
<path d="M57.5515 70.3448C57.1953 71.0235 56.4717 71.4276 55.7069 71.3749L24.8522 69.139C22.9082 68.9947 21.1206 68.0202 19.946 66.4646C18.7713 64.909 18.3235 62.9229 18.7169 61.0137C19.45 57.7939 22.361 55.5445 25.6616 55.6473L33.3513 60.0578L33.3419 60.0555L25.5579 59.4987C24.6901 59.4353 23.8396 59.7642 23.2403 60.3951C22.6411 61.026 22.3563 61.8923 22.4642 62.7557C22.6751 64.1557 23.8399 65.2152 25.2535 65.293L48.8353 67.0012L57.5515 70.3448Z" fill="#2C3E50"/>
<path d="M33.342 60.0554L25.5579 59.4986C24.6901 59.4352 23.8396 59.7642 23.2404 60.3951C22.6411 61.026 22.3563 61.8923 22.4642 62.7557C22.6751 64.1556 23.8399 65.2152 25.2536 65.2929L48.8353 67.0012L33.342 60.0554Z" fill="#F9EAB0"/>
<path d="M29.7513 45.7347L42.4048 17.512C42.8472 16.5438 43.9853 16.1104 44.9596 16.5392L72.9701 29.0975C76.1431 30.4677 77.8196 33.9682 76.8981 37.2993C76.8128 37.584 76.7092 37.8629 76.588 38.1342L63.9344 66.3569L29.7513 45.7347Z" fill="#E64C3C"/>
<path d="M65.6783 32.1674C65.6233 32.1536 65.5696 32.135 65.5178 32.112L45.2324 23.0173C44.7831 22.7784 44.5961 22.232 44.8046 21.7678C45.0131 21.3036 45.5458 21.0807 46.0228 21.2579L66.3084 30.3477C66.7661 30.5523 66.9914 31.0727 66.8273 31.5464C66.6633 32.02 66.1644 32.2897 65.6783 32.1674Z" fill="#3F5C6C"/>
<path d="M60.1737 34.9922C60.1186 34.9784 60.065 34.9595 60.0134 34.9358L46.7833 29.0081C46.3107 28.7815 46.1048 28.2195 46.3191 27.7412C46.5335 27.2629 47.0901 27.0427 47.5737 27.2447L60.805 33.1717C61.266 33.3745 61.4941 33.8973 61.3291 34.3732C61.164 34.849 60.6612 35.1184 60.1737 34.9922Z" fill="#3F5C6C"/>
<path d="M61.0751 39.6715L42.552 31.3599C42.0649 31.1413 41.4928 31.359 41.2742 31.8461L37.3163 40.6667C37.0977 41.1538 37.3154 41.7259 37.8025 41.9445L56.3256 50.2561C56.8128 50.4747 57.3849 50.257 57.6035 49.7698L61.5614 40.9493C61.78 40.4622 61.5623 39.8901 61.0751 39.6715Z" fill="#ECF0F1"/>
<path d="M76.8974 37.2942C76.8133 37.5806 76.7094 37.8608 76.5863 38.1328L63.9309 66.351L57.2601 62.327L67.4363 39.6339L69.8426 34.2798L72.3007 28.7991L72.9729 29.0982C76.1415 30.4696 77.8156 33.9658 76.8974 37.2942Z" fill="#C03A2B"/>
<path d="M60.3174 57.3164L32.303 44.7622C32.1993 44.7162 32.092 44.6791 31.982 44.6514C31.01 44.4089 30.0139 44.9493 29.687 45.8962C29.3601 46.8432 29.8109 47.883 30.7254 48.2918L58.946 60.9379C59.7384 61.2975 60.3284 61.9926 60.5545 62.8329C60.7806 63.6732 60.6192 64.5705 60.1143 65.2793C59.2685 66.4099 57.7434 66.7882 56.4673 66.184L28.3544 53.585C28.2508 53.5391 28.1434 53.502 28.0335 53.4742C27.0609 53.2265 26.0605 53.7643 25.7307 54.7122C25.4008 55.6601 25.8513 56.7027 26.7675 57.1123L54.9975 69.7607C56.7759 70.556 58.8106 70.5469 60.5818 69.7358C62.3531 68.9247 63.6892 67.3901 64.249 65.5241C65.1675 62.1907 63.4906 58.6899 60.3174 57.3164Z" fill="#802F34"/>
<path d="M60.1143 65.2793C59.2685 66.4099 57.7434 66.7882 56.4673 66.184L28.3544 53.585L30.7254 48.2918L58.946 60.9378C59.7384 61.2975 60.3284 61.9926 60.5545 62.8329C60.7806 63.6732 60.6191 64.5705 60.1143 65.2793Z" fill="#F9EAB0"/>
</g>
<defs>
<clipPath id="clip0">
<rect width="56.0593" height="56.0593" fill="white" transform="translate(25.5674 11.6159) rotate(14.1486)"/>
</clipPath>
</defs>
</svg>
