<svg width="78" height="79" viewBox="0 0 78 79" fill="none" xmlns="http://www.w3.org/2000/svg">
<path d="M16.8457 51.8035C16.6868 49.4375 15.559 46.7169 13.7515 44.3393C12.7005 42.9569 11.5068 41.7864 10.2038 40.8606C9.36627 40.2654 8.62838 39.5516 8.01068 38.7391C4.64183 34.3075 5.5115 27.9574 9.94955 24.5835L24.27 13.6968C27.7289 11.0673 32.4098 10.7406 36.1951 12.8643C39.4825 14.7087 42.5153 17.387 44.9653 20.6098C47.4233 23.8432 49.1742 27.4615 50.0731 31.0982C53.3369 32.9371 56.3551 35.5921 58.8131 38.8253C61.2632 42.0482 63.0328 45.6868 63.9306 49.3479C64.9645 53.5634 63.3977 57.9863 59.9388 60.6158L45.6183 71.5025C43.4384 73.1597 40.7477 73.8546 38.0421 73.4589C35.4038 73.0731 33.066 71.6971 31.4601 69.5846C31.4599 69.5844 31.4599 69.5844 31.4598 69.5842C30.8421 68.7717 30.3518 67.8699 30.0023 66.9039C29.4588 65.4006 28.6503 63.9374 27.5993 62.5548C25.7918 60.1773 23.472 58.3628 21.2347 57.5769C18.7487 56.7035 17.0223 54.4326 16.8457 51.8035Z" fill="#FF6F7F"/>
<path d="M63.9307 49.3482C63.0328 45.687 61.2632 42.0484 58.8132 38.8256C56.3552 35.5923 53.337 32.9374 50.0732 31.0984C49.1743 27.4617 47.4234 23.8433 44.9654 20.6101C42.5154 17.3873 39.4826 14.7088 36.1952 12.8645C34.9088 12.1427 33.519 11.7048 32.1088 11.5432L11.7828 26.9955C8.67491 29.3582 8.06477 33.8037 10.4227 36.9053C10.8545 37.4733 11.3711 37.9729 11.9583 38.3903C13.5125 39.4949 14.9275 40.8796 16.164 42.506C18.3207 45.343 19.6709 48.6578 19.8684 51.6005C19.9637 53.0207 20.8962 54.2473 22.2391 54.719C25.0217 55.6963 27.8546 57.8839 30.0113 60.7208C31.2478 62.3473 32.2036 64.0812 32.8523 65.8744C33.0972 66.5516 33.4404 67.183 33.8722 67.751L33.8723 67.7511C34.9952 69.2282 36.6315 70.1906 38.4799 70.4613C40.3739 70.7386 42.258 70.252 43.7849 69.0913L64.1109 53.639C64.3323 52.2369 64.282 50.7806 63.9307 49.3482Z" fill="#FC5C70"/>
<path d="M62.7449 50.2082L41.6316 66.2589C39.7447 67.6933 37.0035 66.8917 36.1975 64.664C35.4517 62.6026 34.3314 60.5251 32.8432 58.5677C30.1476 55.0217 26.749 52.5323 23.4178 51.3622L34.7221 38.6274L50.9364 30.442C54.2677 31.612 57.6652 34.1022 60.3609 37.6482C62.3353 40.2453 63.6632 43.0527 64.3251 45.7541C64.7341 47.4202 64.1102 49.1702 62.7449 50.2082Z" fill="#E2E2E2"/>
<path d="M50.9363 30.4421L23.4178 51.3622C23.1815 47.8394 21.6917 43.8988 18.996 40.3529C17.5079 38.3954 15.8059 36.7601 14.019 35.4902C12.088 34.1178 12.0488 31.262 13.9357 29.8275L35.049 13.7768C36.4143 12.7388 38.2675 12.6057 39.7634 13.4454C42.1892 14.8058 44.5392 16.8362 46.5136 19.4333C49.2094 22.9793 50.7 26.9192 50.9363 30.4421Z" fill="#EAEAEA"/>
<path d="M36.9689 19.4152C36.7286 19.0992 36.7228 18.6492 36.9811 18.3242C37.2866 17.9395 37.8461 17.8754 38.2307 18.1809C39.7814 19.4128 41.2024 20.8723 42.4546 22.5194C43.6975 24.1544 44.7185 25.9014 45.489 27.712C45.6814 28.164 45.4708 28.6863 45.0189 28.8787C44.567 29.0711 44.0447 28.8609 43.8522 28.4087C43.1392 26.7333 42.1925 25.1141 41.0385 23.5961C39.876 22.0669 38.5591 20.7136 37.1243 19.5738C37.0647 19.5264 37.0129 19.4731 36.9689 19.4152Z" fill="#5C586F"/>
<path d="M32.7375 22.632C32.4973 22.3159 32.4914 21.866 32.7497 21.5409C33.0553 21.1563 33.6148 21.0922 33.9994 21.3977C35.55 22.6294 36.9711 24.0891 38.2233 25.7361C39.4662 27.3711 40.4871 29.1181 41.2576 30.9288C41.45 31.3807 41.2395 31.9031 40.7875 32.0955C40.3357 32.2878 39.8134 32.0777 39.6209 31.6255C38.9079 29.95 37.9612 28.3308 36.8072 26.8128C35.6447 25.2837 34.3278 23.9304 32.893 22.7906C32.8333 22.7433 32.7815 22.6898 32.7375 22.632Z" fill="#5C586F"/>
<path d="M28.506 25.8489C28.2658 25.5328 28.2599 25.0829 28.5182 24.7578C28.8238 24.3732 29.3833 24.3091 29.7679 24.6146C31.3186 25.8464 32.7396 27.306 33.9917 28.953C35.2347 30.588 36.2556 32.335 37.0261 34.1457C37.2185 34.5976 37.008 35.12 36.556 35.3124C36.1042 35.5047 35.5818 35.2946 35.3894 34.8424C34.6764 33.1669 33.7297 31.5477 32.5757 30.0297C31.4132 28.5006 30.0963 27.1473 28.6615 26.0075C28.6019 25.9601 28.55 25.9067 28.506 25.8489Z" fill="#5C586F"/>
<path d="M46.0752 55.783C46.0312 55.7251 45.9937 55.6609 45.9641 55.5909C45.2496 53.9036 44.2979 52.2727 43.1353 50.7435C41.9813 49.2255 40.6743 47.8801 39.2507 46.745C38.8664 46.4386 38.8035 45.8792 39.1098 45.4951C39.416 45.111 39.9756 45.048 40.3598 45.3542C41.8982 46.581 43.3086 48.032 44.5515 49.6669C45.8036 51.314 46.8299 53.0737 47.6021 54.8973C47.7936 55.3496 47.5822 55.8716 47.1298 56.0631C46.7475 56.2249 46.3154 56.099 46.0752 55.783Z" fill="#5C586F"/>
<path d="M41.8438 58.9998C41.7998 58.942 41.7623 58.8777 41.7326 58.8077C41.0182 57.1204 40.0665 55.4896 38.9039 53.9603C37.7498 52.4423 36.4429 51.097 35.0192 49.9618C34.6349 49.6554 34.5721 49.096 34.8784 48.712C35.1846 48.3278 35.7442 48.2648 36.1283 48.571C37.6668 49.7978 39.0772 51.2488 40.32 52.8837C41.5722 54.5308 42.5985 56.2905 43.3706 58.1141C43.5621 58.5665 43.3507 59.0884 42.8984 59.2799C42.516 59.4418 42.084 59.3158 41.8438 58.9998Z" fill="#5C586F"/>
<path d="M32.7578 36.4108C31.9972 34.8742 31.0749 33.39 30.0055 31.9832C28.9258 30.563 27.7304 29.2665 26.44 28.115C25.8061 27.5494 24.8632 27.5046 24.1869 28.0188L21.4237 30.1194C20.5854 30.7567 20.483 31.9837 21.2108 32.7449C22.3368 33.9227 23.5884 35.4161 24.2849 36.3322C24.9753 37.2404 26.0701 38.8312 26.899 40.22C27.4373 41.1218 28.6434 41.3504 29.4795 40.7148L32.2488 38.6095C32.9258 38.0949 33.1351 37.1729 32.7578 36.4108Z" fill="#36D39A"/>
<path d="M24.5929 33.097C24.3526 32.781 24.3468 32.331 24.6051 32.006C24.9106 31.6213 25.4701 31.5572 25.8547 31.8627C26.5255 32.3955 27.1396 33.0261 27.68 33.737C28.2165 34.4427 28.6575 35.1975 28.9908 35.9807C29.1832 36.4327 28.9727 36.955 28.5207 37.1474C28.0689 37.3399 27.5466 37.1297 27.3541 36.6774C27.0784 36.0295 26.7116 35.4023 26.264 34.8136C25.8132 34.2206 25.3032 33.6963 24.7484 33.2556C24.6888 33.2083 24.6369 33.1549 24.5929 33.097Z" fill="#5C586F"/>
<path d="M72.1215 47.5189L72.721 43.1186C73.0949 40.3737 71.1729 37.8455 68.4281 37.4716L46.7951 34.5246L41.0466 41.0448L44.8417 48.865L66.4745 51.8118C69.2194 52.1858 71.7477 50.2638 72.1215 47.5189Z" fill="#80DFB5"/>
<path d="M41.2624 37.9949L33.7491 36.9714C32.5215 36.8042 31.3472 37.5292 30.9468 38.7015L30.3368 40.4871C29.9684 41.5653 30.6761 42.7115 31.8051 42.8653L40.4387 44.0414L41.2624 37.9949Z" fill="#80DFB5"/>
<path d="M46.7951 34.5246L44.4217 34.2013C40.4616 33.6619 36.8142 36.4347 36.2747 40.3948C36.0051 42.3742 36.5631 44.2767 37.6847 45.7506C38.8049 47.2255 40.4887 48.272 42.4682 48.5417L44.8416 48.865L46.7951 34.5246Z" fill="#77718C"/>
</svg>
