<svg width="71" height="77" viewBox="0 0 71 77" fill="none" xmlns="http://www.w3.org/2000/svg">
<path d="M56.9522 46.7012L51.7075 50.6621L53.6373 56.9448L56.3278 57.8154C56.8231 57.9757 57.3545 57.7041 57.5148 57.2088L60.2493 48.7588C60.4096 48.2635 60.138 47.732 59.6427 47.5717L56.9523 46.7011L56.9522 46.7012Z" fill="#FF5A47"/>
<path d="M49.7777 44.3795L56.9523 46.7012L53.6373 56.9449L46.4628 54.6231L49.7777 44.3795Z" fill="#FE8047"/>
<path d="M61.4281 32.8704L56.1833 36.8313L58.1132 43.1139L60.8036 43.9846C61.2989 44.1449 61.8304 43.8733 61.9907 43.378L64.7251 34.9279C64.8854 34.4327 64.6138 33.9012 64.1185 33.7409L61.4281 32.8702L61.4281 32.8704Z" fill="#A4D43B"/>
<path d="M54.2535 30.5486L61.428 32.8704L58.1131 43.114L50.9385 40.7923L54.2535 30.5486Z" fill="#CCE332"/>
<path d="M65.9038 19.0394L60.6591 23.0003L62.5889 29.283L65.2794 30.1536C65.7746 30.3139 66.3061 30.0423 66.4664 29.547L69.2009 21.0971C69.3611 20.6018 69.0895 20.0703 68.5943 19.9101L65.9038 19.0394Z" fill="#FCC023"/>
<path d="M58.7292 16.7177L65.9038 19.0394L62.5889 29.2831L55.4143 26.9614L58.7292 16.7177Z" fill="#FCD72B"/>
<path d="M25.5719 2.02479L23.5915 57.1292L3.86152 50.7444L18.4497 5.6644C19.4113 2.69294 22.6005 1.06321 25.5719 2.02479Z" fill="#0F4C81"/>
<path d="M63.1872 15.1881L48.8892 59.3713L33.9596 56.5214L59.8901 13.1304L62.5806 14.001C63.0758 14.1613 63.3474 14.6928 63.1872 15.1881Z" fill="#2D6AAB"/>
<path d="M59.8901 13.1304L44.7215 60.004L10.4032 48.8984L25.5719 2.02478L50.9219 10.2282L52.4515 14.6862L56.3028 11.9695L59.8901 13.1304Z" fill="#4B88D5"/>
<path d="M45.4066 70.1331L44.536 72.8236C44.3757 73.3188 43.8442 73.5904 43.3489 73.4302L40.6585 72.5595L39.3929 64.2241L45.4066 70.1331Z" fill="#0F4C81"/>
<path d="M48.8892 59.3713L47.7283 62.9586L39.3929 64.2241L45.3019 58.2104L48.8892 59.3713Z" fill="#0F4C81"/>
<path d="M10.9837 47.1048C8.01223 46.1432 4.82307 47.7729 3.86148 50.7444L2.70061 54.3317C1.73903 57.3031 3.36876 60.4923 6.34022 61.4539L31.6903 69.6573L34.9611 68.7344L37.0712 71.3986L40.6584 72.5595L45.3019 58.2104L10.9837 47.1048Z" fill="#2D6AAB"/>
<path d="M44.141 61.7977L47.7283 62.9586C46.4162 63.6291 45.5001 64.7659 45.0799 66.0645L37.3249 65.5364L44.141 61.7977Z" fill="#FFF7BA"/>
<path d="M45.4066 70.1331L41.8193 68.9722L37.9054 63.7427L45.0799 66.0645C44.6597 67.363 44.7361 68.821 45.4066 70.1331Z" fill="#FFF04A"/>
<path d="M41.8193 68.9722L7.50106 57.8666C6.51098 57.5462 5.96746 56.4826 6.28786 55.4925L6.8683 53.6989L9.24237 52.4857L40.2794 62.5295L41.4926 64.9036C41.0724 66.2022 41.1488 67.6602 41.8193 68.9722Z" fill="#FFF7BA"/>
<path d="M9.82281 50.6921L44.141 61.7977C42.829 62.4682 41.9129 63.605 41.4926 64.9036L6.86831 53.6989L7.44874 51.9053C7.76914 50.9152 8.83272 50.3717 9.82281 50.6921Z" fill="white"/>
<path d="M36.3338 55.3083L31.6903 69.6573L37.0712 71.3986L41.7147 57.0496L40.1851 52.5916L36.3338 55.3083Z" fill="#404242"/>
<path d="M50.9219 10.2282L56.3028 11.9695L41.7146 57.0495L36.3337 55.3083L50.9219 10.2282Z" fill="#565959"/>
</svg>
