<svg width="476" height="25" viewBox="0 0 476 25" fill="none" xmlns="http://www.w3.org/2000/svg">
<path d="M181.5 10.9015C161.1 29.3015 132 19.5682 120 12.4015V23.4015L238 22.9015V11.9015C227.667 3.90154 201.9 -7.49846 181.5 10.9015Z" fill="#FFC90C" stroke="#FFC90C"/>
<path d="M300.5 10.9015C280.1 29.3015 251 19.5682 239 12.4015V23.4015L357 22.9015V11.9015C346.667 3.90154 320.9 -7.49846 300.5 10.9015Z" fill="#FFC90C" stroke="#FFC90C"/>
<path d="M418.5 10.9015C398.1 29.3015 369 19.5682 357 12.4015V23.4015L475 22.9015V11.9015C464.667 3.90154 438.9 -7.49846 418.5 10.9015Z" fill="#FFC90C" stroke="#FFC90C"/>
<path d="M62.5 11C42.1 29.4 13 19.6667 1 12.5V23.5L119 23V12C108.667 4.00001 82.9 -7.39999 62.5 11Z" fill="#FFC90C" stroke="#FFC90C"/>
</svg>
