<svg width="79" height="79" viewBox="0 0 79 79" fill="none" xmlns="http://www.w3.org/2000/svg">
<g clip-path="url(#clip0)">
<path d="M61.0686 60.0161L52.5974 76.5911C52.1972 77.3741 51.0861 77.4815 50.4608 76.799C47.4527 73.5181 44.0127 70.889 40.2187 68.95C36.1858 66.8888 31.7551 65.6091 27.0202 65.16C26.6714 65.1269 26.3311 65.0314 26.019 64.8719C25.7067 64.7123 25.4299 64.4924 25.1985 64.2289C19.1091 57.2936 11.1536 53.1139 2.03458 52.0492C1.11534 51.9421 0.551498 50.9787 0.95162 50.1958L9.42287 33.6207C9.71105 33.0569 10.3273 32.725 10.9913 32.7879C15.729 33.2372 20.1602 34.5175 24.1935 36.5788C28.5372 38.7988 32.4189 41.9255 35.7168 45.8968C45.6517 46.5657 54.3056 50.8317 60.8248 58.2571C61.2648 58.7583 61.3568 59.4522 61.0686 60.0161Z" fill="url(#paint0_linear)"/>
<path d="M51.6211 74.5288C48.613 71.2479 45.173 68.6188 41.379 66.6798C37.3461 64.6187 32.9154 63.3389 28.1805 62.8898C27.8317 62.8567 27.4914 62.7612 27.1793 62.6017C26.867 62.4421 26.5902 62.2222 26.3589 61.9587C20.2694 55.0234 12.3138 50.8438 3.19489 49.779C2.27555 49.6721 1.71176 48.7086 2.11188 47.9257L0.951675 50.1958C0.551501 50.9788 1.11534 51.9422 2.03479 52.0491C11.1537 53.1139 19.1092 57.2935 25.1987 64.229C25.4301 64.4925 25.707 64.7124 26.0192 64.8719C26.3313 65.0315 26.6715 65.1269 27.0204 65.16C31.7551 65.6091 36.186 66.8889 40.2188 68.95C44.0129 70.8891 47.4529 73.5181 50.461 76.799C51.0863 77.4815 52.1974 77.3742 52.5975 76.5912L53.7577 74.3211C53.3575 75.1039 52.2464 75.2114 51.6211 74.5288Z" fill="url(#paint1_linear)"/>
<path d="M59.8893 58.667L52.8748 72.3916C52.4746 73.1746 51.4121 73.3068 50.8307 72.6467C48.0358 69.4748 44.8138 66.9572 41.2377 65.1295C37.7887 63.3668 34.0125 62.2469 29.9734 61.8052C29.2507 61.7262 28.5468 61.5236 27.8994 61.1928C27.2512 60.8615 26.6744 60.4089 26.1863 59.8688C20.6385 53.731 13.4476 50.117 5.18352 49.317C4.30792 49.2325 3.79269 48.2939 4.19286 47.5109L11.2073 33.7863C11.4955 33.2225 12.0917 32.8803 12.7237 32.9269C17.2352 33.2606 21.4364 34.4233 25.2377 36.3661C29.3326 38.4589 32.9633 41.4573 36.0194 45.305C45.4865 45.7348 53.6475 49.7489 59.6976 56.9346C60.1055 57.4195 60.1774 58.1032 59.8893 58.667Z" fill="url(#paint2_linear)"/>
<path d="M59.8893 58.667L52.8748 72.3916C52.4746 73.1746 51.4121 73.3068 50.8307 72.6467C48.0358 69.4748 44.8138 66.9572 41.2377 65.1295C37.7887 63.3668 34.0125 62.2469 29.9734 61.8052C29.2507 61.7262 28.5468 61.5236 27.8994 61.1928C27.2512 60.8615 26.6744 60.4089 26.1863 59.8688C20.6385 53.731 13.4476 50.117 5.18352 49.317C4.30792 49.2325 3.79269 48.2939 4.19286 47.5109L11.2073 33.7863C11.4955 33.2225 12.0917 32.8803 12.7237 32.9269C17.2352 33.2606 21.4364 34.4233 25.2377 36.3661C29.3326 38.4589 32.9633 41.4573 36.0194 45.305C45.4865 45.7348 53.6475 49.7489 59.6976 56.9346C60.1055 57.4195 60.1774 58.1032 59.8893 58.667Z" fill="url(#paint3_linear)"/>
<path d="M60.3615 57.7431L53.347 71.4677C52.9469 72.2507 51.8844 72.3829 51.303 71.7228C48.508 68.5509 45.286 66.0332 41.7099 64.2055C38.261 62.4429 34.4848 61.323 30.4456 60.8813C29.7229 60.8023 29.019 60.5997 28.3716 60.2689C27.7234 59.9376 27.1467 59.4849 26.6585 58.9449C21.1107 52.8071 13.9198 49.1931 5.65575 48.3931C4.78015 48.3086 4.26492 47.37 4.66509 46.587L11.6795 32.8624C11.9677 32.2985 12.5639 31.9564 13.1959 32.003C17.7074 32.3366 21.9087 33.4994 25.7099 35.4421C29.8048 37.535 33.4355 40.5334 36.4916 44.3811C45.9587 44.8109 54.1197 48.825 60.1699 56.0106C60.5777 56.4956 60.6497 57.1792 60.3615 57.7431Z" fill="url(#paint4_linear)"/>
<path d="M12.0426 32.1518L5.02813 45.8764C4.62796 46.6594 5.14319 47.5979 6.01884 47.6824C10.2268 48.0895 14.1547 49.2261 17.7308 51.0538C21.1797 52.8165 24.2993 55.221 27.0234 58.2358C27.5108 58.7753 28.0873 59.2271 28.7347 59.558C29.3829 59.8893 30.0876 60.0916 30.8112 60.1708C39.0355 61.0718 46.1768 64.7828 51.6662 71.0119C52.2476 71.672 53.3101 71.5398 53.7102 70.7569L60.7246 57.0323C61.0128 56.4684 60.9409 55.7848 60.5329 55.2999C57.6197 51.8389 54.2163 49.115 50.4151 47.1723C46.3202 45.0794 41.7633 43.8933 36.8546 43.6703C30.9606 36.2493 22.9267 31.9865 13.5589 31.2922C12.927 31.2457 12.3307 31.5879 12.0426 32.1518Z" fill="url(#paint5_linear)"/>
<path d="M14.1543 30.1266C13.523 30.0798 12.9265 30.4224 12.6385 30.986L5.6242 44.7103C5.22387 45.4936 5.73961 46.4325 6.61515 46.5171C15.6409 47.3894 23.3848 51.619 29.1085 58.8267C34.754 47.7806 31.805 53.5508 37.4505 42.5046C31.5572 35.0842 23.524 30.8204 14.1543 30.1266Z" fill="url(#paint6_linear)"/>
<path d="M61.129 54.1347C55.0786 46.9483 46.918 42.9339 37.4505 42.5047L29.1085 58.8268C38.3041 59.2435 46.2678 63.0431 52.2612 69.8463C52.8427 70.5063 53.9057 70.3744 54.306 69.5911C59.509 59.4109 56.1174 66.047 61.3203 55.8668C61.6086 55.303 61.5367 54.619 61.129 54.1347Z" fill="url(#paint7_linear)"/>
<path d="M14.5701 33.103C13.9801 33.0593 13.4227 33.3795 13.1535 33.9063L7.15991 45.6334C6.78577 46.3655 7.26771 47.2429 8.08609 47.322C16.5215 48.1373 23.7591 52.0902 29.1086 58.8266C34.3849 48.5028 31.0667 54.9954 36.343 44.6716C30.835 37.7365 23.3272 33.7515 14.5701 33.103Z" fill="url(#paint8_linear)"/>
<path d="M15.6211 34.184C18.1543 34.5201 20.5638 35.155 22.8352 36.0817C23.0462 36.1677 23.1367 36.4179 23.033 36.6209L22.6102 37.4482C22.5177 37.6292 22.3026 37.7075 22.1142 37.6313C19.9021 36.7361 17.5507 36.1352 15.0736 35.8345C14.8048 35.8018 14.6512 35.5108 14.7745 35.2696L15.2216 34.3947C15.2968 34.2473 15.4571 34.1623 15.6211 34.184Z" fill="#BEC3D2"/>
<path d="M28.3479 39.5112L27.9237 40.3411C27.8162 40.5516 27.547 40.6202 27.3537 40.4844C26.2092 39.6808 25.0139 38.9754 23.7711 38.3695C23.5736 38.2731 23.4918 38.0351 23.5918 37.8394L24.0124 37.0165C24.1089 36.8276 24.3396 36.7486 24.5304 36.8417C25.8109 37.4668 27.0427 38.1906 28.2246 39.0125C28.3846 39.1238 28.4367 39.3375 28.3479 39.5112Z" fill="#BEC3D2"/>
<path d="M32.1345 42.6603L31.6928 43.5246C31.5724 43.7601 31.2565 43.8114 31.07 43.6239C30.3496 42.8991 29.596 42.2187 28.8171 41.5887C28.6731 41.4722 28.6293 41.2721 28.7135 41.1073L29.1438 40.2654C29.2557 40.0465 29.5408 39.9825 29.7329 40.1358C30.5369 40.7773 31.3155 41.4684 32.0618 42.2038C32.1831 42.3233 32.212 42.5087 32.1345 42.6603Z" fill="#BEC3D2"/>
<path d="M13.9859 37.3831C14.6696 37.4741 15.3447 37.5869 16.0112 37.7216C16.2658 37.7731 16.4022 38.0519 16.284 38.2832L15.8462 39.1399C15.7668 39.2951 15.5947 39.3778 15.4236 39.3446C14.7708 39.2183 14.1087 39.1141 13.4386 39.0326C13.17 38.9999 13.0168 38.7087 13.1399 38.4678L13.5867 37.5936C13.6619 37.4462 13.822 37.3613 13.9859 37.3831Z" fill="#BEC3D2"/>
<path d="M24.5005 41.3213L24.0798 42.1446C23.9791 42.3416 23.7345 42.417 23.542 42.3081C23.0976 42.0568 22.6463 41.8193 22.1885 41.5944C20.6185 40.8248 18.9655 40.2113 17.244 39.7582C17.0025 39.6947 16.8835 39.422 16.9971 39.1996L17.4255 38.3615C17.5094 38.1974 17.697 38.113 17.8748 38.1611C19.6349 38.6374 21.327 39.272 22.9396 40.0623C23.4155 40.2952 23.8849 40.5424 24.3469 40.8033C24.5286 40.9061 24.5955 41.1354 24.5005 41.3213Z" fill="#BEC3D2"/>
<path d="M30.4995 45.8593L30.0582 46.7229C29.9377 46.9585 29.6219 47.0095 29.4352 46.8219C28.0886 45.4685 26.6349 44.2754 25.0877 43.2537C24.921 43.1437 24.8624 42.9274 24.9533 42.7495L25.3764 41.9216C25.4816 41.7157 25.7426 41.6442 25.936 41.7708C27.5307 42.8143 29.0318 44.0289 30.4269 45.4027C30.5481 45.5224 30.577 45.7077 30.4995 45.8593Z" fill="#BEC3D2"/>
<path d="M12.3503 40.5816C14.8734 40.9169 17.2892 41.5532 19.5637 42.4813C19.7746 42.5674 19.8649 42.8171 19.7613 43.02L19.3388 43.8466C19.2463 44.0276 19.0312 44.1059 18.8427 44.0296C16.6288 43.1336 14.271 42.531 11.8031 42.2309C11.5343 42.1983 11.3808 41.9072 11.5041 41.6661L11.9508 40.792C12.026 40.6448 12.1863 40.5598 12.3503 40.5816Z" fill="#BEC3D2"/>
<path d="M28.865 49.0574L28.4232 49.9219C28.3028 50.1574 27.9869 50.2086 27.8003 50.0212C25.6406 47.8504 23.2066 46.0952 20.5535 44.7935C20.5354 44.7846 20.5173 44.7758 20.4992 44.7669C20.3023 44.6709 20.2218 44.4328 20.3215 44.2378L20.7424 43.4142C20.8392 43.2248 21.07 43.147 21.2611 43.2404C21.2756 43.2474 21.29 43.2546 21.3044 43.2617C24.0401 44.6029 26.5535 46.3958 28.7921 48.601C28.9135 48.7203 28.9425 48.9057 28.865 49.0574Z" fill="#BEC3D2"/>
<path d="M10.7165 43.7801C11.4 43.8713 12.0749 43.9844 12.7415 44.119C12.9961 44.1703 13.1326 44.4493 13.0144 44.6806L12.5766 45.5372C12.4973 45.6923 12.3254 45.775 12.1544 45.742C11.5013 45.6161 10.8389 45.5121 10.1687 45.4306C9.90008 45.3979 9.74686 45.1067 9.86999 44.8658L10.3172 43.9907C10.3925 43.8432 10.5526 43.7583 10.7165 43.7801Z" fill="#BEC3D2"/>
<path d="M23.4432 49.1078L23.0189 49.938C22.9102 50.1506 22.6393 50.2152 22.4439 50.0782C21.3191 49.289 20.1424 48.5926 18.9186 47.9925C17.3486 47.2229 15.696 46.6085 13.9741 46.1562C13.7326 46.0927 13.6136 45.82 13.7272 45.5977L14.1556 44.7595C14.2395 44.5954 14.427 44.5109 14.6048 44.559C16.3654 45.0346 18.057 45.6701 19.6696 46.4604C20.936 47.0816 22.1544 47.7988 23.32 48.6095C23.4799 48.7209 23.5318 48.9344 23.4432 49.1078Z" fill="#BEC3D2"/>
<path d="M52.2614 69.8463C52.8429 70.5063 53.9059 70.3743 54.3062 69.591C59.5091 59.4108 56.1175 66.0469 61.3205 55.8667C61.6086 55.303 61.5368 54.619 61.129 54.1347C55.0786 46.9483 46.918 42.9339 37.4505 42.5047C36.3532 41.123 35.1814 39.8511 33.9408 38.691L31.0983 41.3657C30.8309 41.6172 30.9051 42.0314 31.1872 42.2004L36.9759 60.0915C42.8717 61.7754 48.0528 65.0692 52.2614 69.8463Z" fill="url(#paint9_linear)"/>
<path d="M72.5638 32.6438L70.107 25.0506L72.7535 24.1943C73.1417 24.0687 73.5652 24.2305 73.7706 24.5831C74.8939 26.5103 75.5885 28.6568 75.807 30.8767C75.8469 31.2829 75.5986 31.662 75.2103 31.7877L72.5638 32.6438Z" fill="url(#paint10_linear)"/>
<path d="M72.5638 32.6439L75.2103 31.7876C75.2732 31.7672 75.3319 31.7396 75.3869 31.707C75.4046 31.6224 75.4105 31.5343 75.4017 31.4448C75.1832 29.2249 74.4886 27.0782 73.3653 25.1511C73.1597 24.7985 72.7364 24.6367 72.3481 24.7623L70.2349 25.446L72.5638 32.6439Z" fill="url(#paint11_linear)"/>
<path d="M75.807 30.8766C75.77 30.5007 75.7182 30.127 75.6542 29.756C75.5466 29.852 75.4186 29.9274 75.2746 29.9741L72.0388 31.0211L72.5639 32.6439L75.2104 31.7876C75.5986 31.6619 75.8469 31.2828 75.807 30.8766Z" fill="url(#paint12_linear)"/>
<path d="M68.4523 34.4111L72.9222 32.9648C73.0964 32.9085 73.1918 32.7218 73.1354 32.5477L70.6266 24.7936C70.5702 24.6195 70.3835 24.5241 70.2094 24.5805L65.7395 26.0267L68.4523 34.4111Z" fill="url(#paint13_linear)"/>
<path d="M67.9927 25.2945L62.3192 36.3954L70.7143 33.6822L67.9998 25.2922L67.9927 25.2945Z" fill="url(#paint14_linear)"/>
<path d="M70.6006 33.4662L68.0341 25.5341C67.9056 25.1368 68.1235 24.7106 68.5208 24.5819C68.9181 24.4535 69.3443 24.6713 69.473 25.0686L72.0394 33.0006C72.1679 33.398 71.9501 33.8242 71.5528 33.9528C71.1554 34.0813 70.7291 33.8634 70.6006 33.4662Z" fill="url(#paint15_linear)"/>
<path d="M37.7887 35.0702L31.0983 41.3657C30.7746 41.6702 30.9506 42.2142 31.3913 42.2714L40.5015 43.4546C42.8237 42.7033 40.111 34.3188 37.7887 35.0702Z" fill="url(#paint16_linear)"/>
<path d="M38.4796 37.0325L30.9664 41.733C30.9542 41.7405 30.9439 41.7489 30.9328 41.7569C30.9378 42.0008 31.1104 42.2348 31.3913 42.2713L40.5014 43.4545C40.5193 43.4487 40.5361 43.4411 40.5535 43.4344C41.9286 41.8721 40.5946 36.5994 38.4796 37.0325Z" fill="url(#paint17_linear)"/>
<path d="M69.1608 34.1818L40.5015 43.4546C40.4931 43.2895 40.4627 43.1224 40.4095 42.9581C40.0776 41.9322 38.9767 41.3696 37.9509 41.7015C37.9046 41.7165 38.0871 41.6514 38.0871 41.6514C39.0259 41.2698 39.5243 40.2225 39.2071 39.2422C38.89 38.262 37.8725 37.705 36.8882 37.9458C36.8882 37.9458 36.7021 37.9999 36.7484 37.9849C37.7742 37.653 38.3368 36.5521 38.0049 35.5263C37.9518 35.3619 37.8785 35.2088 37.7887 35.07L66.448 25.7974L69.1608 34.1818Z" fill="url(#paint18_linear)"/>
<path d="M68.4039 31.8423L38.0872 41.6514C39.026 41.2699 39.5244 40.2225 39.2073 39.2423C38.8901 38.262 37.8726 37.7051 36.8883 37.9458L67.2049 28.1368L68.4039 31.8423Z" fill="url(#paint19_linear)"/>
<path d="M36.7484 37.9851C36.7022 38 36.8882 37.9459 36.8882 37.9459C37.8726 37.7052 38.89 38.2621 39.2072 39.2423C39.5243 40.2226 39.0259 41.2699 38.0871 41.6515C38.0871 41.6515 37.9047 41.7166 37.9509 41.7017C38.9768 41.3697 40.0776 41.9324 40.4095 42.9582C40.4627 43.1226 40.4931 43.2896 40.5015 43.4547L69.1608 34.1817L66.7706 26.7946L38.099 36.0714C38.1234 36.9165 37.5933 37.7116 36.7484 37.9851Z" fill="url(#paint20_linear)"/>
<path d="M33.1416 41.2049C32.9991 40.7644 32.7928 40.3641 32.539 40.0102L31.0985 41.3657C30.7747 41.6703 30.9507 42.2143 31.3915 42.2715L33.3531 42.5262C33.3515 42.0907 33.2841 41.6453 33.1416 41.2049Z" fill="url(#paint21_linear)"/>
<path d="M65.1263 26.2219L59.4706 37.3202L67.8479 34.6096L65.1334 26.2197L65.1263 26.2219Z" fill="url(#paint22_linear)"/>
<path d="M67.7326 34.3941L65.1662 26.4621C65.0376 26.0647 65.2554 25.6385 65.6528 25.5099C66.0502 25.3813 66.4765 25.5991 66.605 25.9965L69.1715 33.9286C69.3001 34.3259 69.0822 34.7522 68.6848 34.8808C68.2875 35.0093 67.8611 34.7914 67.7326 34.3941Z" fill="url(#paint23_linear)"/>
<path d="M18.0617 24.4617L15.9418 23.3782C15.3795 23.0908 15.1566 22.4021 15.444 21.8397C15.7314 21.2774 16.4202 21.0545 16.9825 21.3419L19.1024 22.4254C19.6647 22.7128 19.8875 23.4016 19.6002 23.9639C19.3129 24.5263 18.624 24.7491 18.0617 24.4617Z" fill="url(#paint24_linear)"/>
<path d="M47.1279 15.0572L48.2113 12.9373C48.4987 12.375 48.2758 11.6862 47.7136 11.3988C47.1512 11.1114 46.4624 11.3344 46.1751 11.8966L45.0916 14.0165C44.8042 14.5789 45.0271 15.2676 45.5894 15.555C46.1516 15.8424 46.8405 15.6196 47.1279 15.0572Z" fill="url(#paint25_linear)"/>
<path d="M29.4134 13.641L28.6805 11.376C28.4861 10.7752 28.8156 10.1305 29.4164 9.93607C30.0172 9.74169 30.6618 10.0712 30.8563 10.672L31.5892 12.9372C31.7836 13.5379 31.4541 14.1826 30.8533 14.3771C30.2524 14.5714 29.6078 14.2419 29.4134 13.641Z" fill="url(#paint26_linear)"/>
<path d="M56.6162 27.5439L58.8813 26.811C59.4821 26.6166 59.8116 25.972 59.6173 25.3711C59.4229 24.7704 58.7781 24.4408 58.1774 24.6352L55.9122 25.3681C55.3114 25.5625 54.9819 26.2072 55.1763 26.808C55.3706 27.4089 56.0152 27.7384 56.6162 27.5439Z" fill="url(#paint27_linear)"/>
</g>
<defs>
<linearGradient id="paint0_linear" x1="26.0593" y1="38.9519" x2="41.678" y2="89.4146" gradientUnits="userSpaceOnUse">
<stop stop-color="#FF7044"/>
<stop offset="1" stop-color="#F92814"/>
</linearGradient>
<linearGradient id="paint1_linear" x1="30.273" y1="53.9903" x2="24.0087" y2="71.7038" gradientUnits="userSpaceOnUse">
<stop stop-color="#F92814" stop-opacity="0"/>
<stop offset="1" stop-color="#C1272D"/>
</linearGradient>
<linearGradient id="paint2_linear" x1="34.9894" y1="43.3462" x2="30.8264" y2="57.1145" gradientUnits="userSpaceOnUse">
<stop stop-color="#F9F7FC"/>
<stop offset="1" stop-color="#F0DDFC"/>
</linearGradient>
<linearGradient id="paint3_linear" x1="34.9894" y1="43.3462" x2="30.8264" y2="57.1145" gradientUnits="userSpaceOnUse">
<stop stop-color="#F9F7FC"/>
<stop offset="1" stop-color="#F0DDFC"/>
</linearGradient>
<linearGradient id="paint4_linear" x1="30.5578" y1="58.4486" x2="27.1172" y2="69.4906" gradientUnits="userSpaceOnUse">
<stop stop-color="#F0DDFC" stop-opacity="0"/>
<stop offset="0.2889" stop-color="#C8B7E0" stop-opacity="0.289"/>
<stop offset="0.5915" stop-color="#A595C8" stop-opacity="0.592"/>
<stop offset="0.8395" stop-color="#8F81B8" stop-opacity="0.84"/>
<stop offset="1" stop-color="#8779B3"/>
</linearGradient>
<linearGradient id="paint5_linear" x1="28.9118" y1="57.7247" x2="24.7989" y2="64.231" gradientUnits="userSpaceOnUse">
<stop stop-color="#F0DDFC" stop-opacity="0"/>
<stop offset="0.2889" stop-color="#C8B7E0" stop-opacity="0.289"/>
<stop offset="0.5915" stop-color="#A595C8" stop-opacity="0.592"/>
<stop offset="0.8395" stop-color="#8F81B8" stop-opacity="0.84"/>
<stop offset="1" stop-color="#8779B3"/>
</linearGradient>
<linearGradient id="paint6_linear" x1="20.2285" y1="40.1552" x2="24.5198" y2="53.4182" gradientUnits="userSpaceOnUse">
<stop stop-color="#F9F7FC"/>
<stop offset="1" stop-color="#F0DDFC"/>
</linearGradient>
<linearGradient id="paint7_linear" x1="43.8253" y1="49.1729" x2="46.6819" y2="64.1421" gradientUnits="userSpaceOnUse">
<stop stop-color="#F9F7FC"/>
<stop offset="1" stop-color="#F0DDFC"/>
</linearGradient>
<linearGradient id="paint8_linear" x1="21.2722" y1="44.3891" x2="17.0163" y2="32.7941" gradientUnits="userSpaceOnUse">
<stop stop-color="#E9EDF5" stop-opacity="0"/>
<stop offset="1" stop-color="white"/>
</linearGradient>
<linearGradient id="paint9_linear" x1="48.8102" y1="56.7957" x2="42.1188" y2="35.0697" gradientUnits="userSpaceOnUse">
<stop stop-color="#F0DDFC" stop-opacity="0"/>
<stop offset="0.1613" stop-color="#E8D5F6" stop-opacity="0.161"/>
<stop offset="0.4171" stop-color="#D1BFE6" stop-opacity="0.417"/>
<stop offset="0.7332" stop-color="#AC9CCD" stop-opacity="0.733"/>
<stop offset="1" stop-color="#8779B3"/>
</linearGradient>
<linearGradient id="paint10_linear" x1="72.4356" y1="25.727" x2="74.2493" y2="31.3328" gradientUnits="userSpaceOnUse">
<stop stop-color="#FF7044"/>
<stop offset="1" stop-color="#F92814"/>
</linearGradient>
<linearGradient id="paint11_linear" x1="72.4502" y1="29.165" x2="75.6961" y2="23.9974" gradientUnits="userSpaceOnUse">
<stop stop-color="#FF7044" stop-opacity="0"/>
<stop offset="1" stop-color="#FFA425"/>
</linearGradient>
<linearGradient id="paint12_linear" x1="76.8762" y1="29.2673" x2="72.9532" y2="31.871" gradientUnits="userSpaceOnUse">
<stop stop-color="#F92814" stop-opacity="0"/>
<stop offset="1" stop-color="#C1272D"/>
</linearGradient>
<linearGradient id="paint13_linear" x1="68.6085" y1="26.6775" x2="70.6112" y2="32.8673" gradientUnits="userSpaceOnUse">
<stop stop-color="#F9F7FC"/>
<stop offset="1" stop-color="#F0DDFC"/>
</linearGradient>
<linearGradient id="paint14_linear" x1="67.3281" y1="30.6302" x2="72.1007" y2="27.9423" gradientUnits="userSpaceOnUse">
<stop stop-color="#F0DDFC" stop-opacity="0"/>
<stop offset="0.2889" stop-color="#C8B7E0" stop-opacity="0.289"/>
<stop offset="0.5915" stop-color="#A595C8" stop-opacity="0.592"/>
<stop offset="0.8395" stop-color="#8F81B8" stop-opacity="0.84"/>
<stop offset="1" stop-color="#8779B3"/>
</linearGradient>
<linearGradient id="paint15_linear" x1="70.554" y1="29.074" x2="69.3134" y2="29.5344" gradientUnits="userSpaceOnUse">
<stop stop-color="#F9F7FC"/>
<stop offset="1" stop-color="#F0DDFC"/>
</linearGradient>
<linearGradient id="paint16_linear" x1="34.5844" y1="36.1055" x2="37.2969" y2="44.4888" gradientUnits="userSpaceOnUse">
<stop stop-color="#FFDAAA"/>
<stop offset="0.4213" stop-color="#FFD8A8"/>
<stop offset="0.6519" stop-color="#FED1A0"/>
<stop offset="0.8359" stop-color="#FDC592"/>
<stop offset="0.9951" stop-color="#FCB47F"/>
<stop offset="1" stop-color="#FCB37E"/>
</linearGradient>
<linearGradient id="paint17_linear" x1="36.1458" y1="42.0148" x2="35.0595" y2="35.123" gradientUnits="userSpaceOnUse">
<stop stop-color="#FFDAAA" stop-opacity="0"/>
<stop offset="0.2507" stop-color="#FFE7C8" stop-opacity="0.251"/>
<stop offset="0.5543" stop-color="#FFF4E6" stop-opacity="0.554"/>
<stop offset="0.8148" stop-color="#FFFCF8" stop-opacity="0.815"/>
<stop offset="1" stop-color="white"/>
</linearGradient>
<linearGradient id="paint18_linear" x1="51.2329" y1="30.7188" x2="53.9454" y2="39.1021" gradientUnits="userSpaceOnUse">
<stop stop-color="#FFDA45"/>
<stop offset="1" stop-color="#FFA425"/>
</linearGradient>
<linearGradient id="paint19_linear" x1="51.988" y1="32.8044" x2="54.1433" y2="39.4656" gradientUnits="userSpaceOnUse">
<stop stop-color="#FFDA45"/>
<stop offset="1" stop-color="#FFA425"/>
</linearGradient>
<linearGradient id="paint20_linear" x1="53.0245" y1="37.2688" x2="52.4027" y2="27.2604" gradientUnits="userSpaceOnUse">
<stop stop-color="#FFDA45" stop-opacity="0"/>
<stop offset="1" stop-color="#FCEE21"/>
</linearGradient>
<linearGradient id="paint21_linear" x1="31.9867" y1="41.2969" x2="32.6788" y2="43.4359" gradientUnits="userSpaceOnUse">
<stop stop-color="#7E8595"/>
<stop offset="1" stop-color="#555A66"/>
</linearGradient>
<linearGradient id="paint22_linear" x1="61.5888" y1="34.9857" x2="71.4312" y2="25.8159" gradientUnits="userSpaceOnUse">
<stop stop-color="#FFDA45" stop-opacity="0"/>
<stop offset="1" stop-color="#B53759"/>
</linearGradient>
<linearGradient id="paint23_linear" x1="67.6865" y1="30.0017" x2="66.4459" y2="30.4622" gradientUnits="userSpaceOnUse">
<stop stop-color="#F9F7FC"/>
<stop offset="1" stop-color="#F0DDFC"/>
</linearGradient>
<linearGradient id="paint24_linear" x1="17.6433" y1="22.6646" x2="16.5725" y2="24.7597" gradientUnits="userSpaceOnUse">
<stop stop-color="#92F37F"/>
<stop offset="1" stop-color="#4AB272"/>
</linearGradient>
<linearGradient id="paint25_linear" x1="46.4144" y1="13.3558" x2="48.5094" y2="14.4265" gradientUnits="userSpaceOnUse">
<stop stop-color="#92F37F"/>
<stop offset="1" stop-color="#4AB272"/>
</linearGradient>
<linearGradient id="paint26_linear" x1="30.3872" y1="12.0675" x2="28.1489" y2="12.7917" gradientUnits="userSpaceOnUse">
<stop stop-color="#92F37F"/>
<stop offset="1" stop-color="#4AB272"/>
</linearGradient>
<linearGradient id="paint27_linear" x1="57.3223" y1="25.8336" x2="58.0464" y2="28.0718" gradientUnits="userSpaceOnUse">
<stop stop-color="#92F37F"/>
<stop offset="1" stop-color="#4AB272"/>
</linearGradient>
<clipPath id="clip0">
<rect width="58" height="58" fill="white" transform="translate(26.5332 0.142334) rotate(27.0709)"/>
</clipPath>
</defs>
</svg>
