<svg width="80" height="78" viewBox="0 0 80 78" fill="none" xmlns="http://www.w3.org/2000/svg">
<path d="M75.3761 41.5132L73.1665 39.8079L50.7996 68.7907C50.7996 68.7907 47.161 67.3634 41.7748 59.8317C38.1431 54.7535 33.2752 53.7423 30.4889 53.6222C29.8963 53.5966 29.0949 53.6922 28.6253 53.3298L28.5959 53.3071L28.5666 53.2845C28.097 52.9221 27.9862 52.1228 27.8113 51.556C26.9889 48.8912 24.7768 44.4383 18.9439 42.2125C10.2931 38.9113 7.98992 35.7533 7.98992 35.7533L30.3568 6.77048L28.1471 5.0652C27.5535 4.6071 26.701 4.71693 26.2429 5.31053L2.92301 35.5283C2.46491 36.1219 2.57484 36.9744 3.16835 37.4325L22.4754 52.3322C23.045 52.7718 23.3283 53.499 23.1743 54.2018C22.8421 55.7176 23.3791 57.3583 24.6891 58.3693C25.9992 59.3803 27.7224 59.4839 29.1046 58.7783C29.7454 58.4512 30.5206 58.541 31.0902 58.9805L50.3972 73.8803C50.9908 74.3384 51.8433 74.2286 52.3014 73.635L75.6213 43.4172C76.0796 42.8238 75.9697 41.9712 75.3761 41.5132Z" fill="#F87C68"/>
<path d="M8.4207 39.7709L10.0704 37.6332C8.53042 36.4942 7.99012 35.7534 7.99012 35.7534L30.357 6.77063L28.1471 5.0652C27.5535 4.6071 26.701 4.71693 26.2429 5.31053L2.92301 35.5283C2.46491 36.1219 2.57475 36.9744 3.16835 37.4325L8.66596 41.6751C8.07236 41.217 7.9626 40.3645 8.4207 39.7709Z" fill="#EC625E"/>
<path d="M74.2894 36.9841C72.7691 35.994 69.7445 33.5937 66.0308 28.4007C60.6447 20.8691 52.5379 22.2832 52.5379 22.2832L50.9958 22.6982L28.6535 51.6493L28.6261 53.268L28.5958 53.3072L28.6251 53.3298C29.0947 53.6922 29.6661 53.8948 30.2587 53.9203C33.045 54.0403 37.9129 55.0516 41.5445 60.1298C46.9308 67.6615 50.8675 69.3189 50.8675 69.3189L74.5642 38.6129C74.9651 38.0933 74.8394 37.3422 74.2894 36.9841Z" fill="#DBEDFF"/>
<path d="M57.0437 22.4715C54.455 21.9491 52.538 22.2832 52.538 22.2832L50.9959 22.6982L28.6535 51.6493L28.6262 53.268L28.5959 53.3072L28.6251 53.3298C29.0948 53.6922 29.6662 53.8948 30.2587 53.9203C30.9216 53.9489 31.7032 54.029 32.557 54.2012L57.0437 22.4715Z" fill="#B5DCFF"/>
<path d="M67.2554 40.9185C67.2362 40.9037 67.2174 40.8881 67.1992 40.8716C65.2348 39.0999 63.2493 36.818 61.2978 34.0891C59.3127 31.3131 56.7192 29.4986 53.5898 28.6952C53.0861 28.566 52.783 28.0529 52.9121 27.5495C53.0414 27.0459 53.5544 26.7425 54.0578 26.8718C57.6282 27.7884 60.579 29.8484 62.8288 32.9941C64.7015 35.6127 66.5961 37.7928 68.4598 39.4738C68.8459 39.8219 68.8766 40.4171 68.5284 40.8031C68.1968 41.1709 67.641 41.2161 67.2554 40.9185Z" fill="#8BCAFF"/>
<path d="M64.8114 44.0854C64.7922 44.0706 64.7735 44.0551 64.7552 44.0385C62.7912 42.2673 60.8057 39.9854 58.8538 37.256C56.8687 34.4801 54.2753 32.6654 51.1458 31.8621C50.6422 31.7328 50.3389 31.2199 50.4681 30.7164C50.5974 30.2128 51.1104 29.9094 51.6138 30.0387C55.1842 30.9553 58.1351 33.0151 60.3848 36.161C62.2579 38.7802 64.1524 40.9603 66.0157 42.6406C66.4018 42.9887 66.4326 43.5838 66.0844 43.9699C65.7529 44.3379 65.197 44.383 64.8114 44.0854Z" fill="#8BCAFF"/>
<path d="M52.5913 59.9201C52.5721 59.9053 52.5533 59.8897 52.5351 59.8732C50.5707 58.1014 48.5852 55.8195 46.6338 53.0906C44.6486 50.3149 42.0553 48.5002 38.9257 47.6968C38.422 47.5676 38.1189 47.0545 38.248 46.5511C38.3773 46.0475 38.8903 45.7441 39.3937 45.8734C42.9641 46.79 45.915 48.8498 48.1648 51.9956C50.0374 54.6143 51.9319 56.7943 53.7958 58.4754C54.1819 58.8235 54.2125 59.4187 53.8643 59.8047C53.5327 60.1725 52.977 60.2177 52.5913 59.9201Z" fill="#8BCAFF"/>
<path d="M50.1472 63.0871C50.128 63.0722 50.1093 63.0567 50.0911 63.0402C48.1267 61.2685 46.1411 58.9866 44.1896 56.2577C42.2045 53.4817 39.6111 51.6671 36.4816 50.8638C35.978 50.7345 35.6748 50.2215 35.8039 49.718C35.9332 49.2145 36.4462 48.9111 36.9497 49.0404C40.52 49.957 43.4708 52.0169 45.7206 55.1627C47.5933 57.7812 49.4879 59.9614 51.3517 61.6424C51.7378 61.9905 51.7684 62.5857 51.4202 62.9717C51.0887 63.3394 50.5329 63.3847 50.1472 63.0871Z" fill="#8BCAFF"/>
<path d="M62.3674 47.2523C62.3482 47.2375 62.3294 47.222 62.3112 47.2055C60.3467 45.4337 58.3613 43.1517 56.4098 40.4229C54.4247 37.6472 51.8313 35.8325 48.7017 35.0291C48.1982 34.8997 47.895 34.3868 48.0241 33.8833C48.1534 33.3798 48.6663 33.0764 49.1698 33.2056C52.7401 34.1223 55.6911 36.182 57.9408 39.3279C59.8134 41.9465 61.708 44.1266 63.5718 45.8077C63.9579 46.1558 63.9886 46.7509 63.6403 47.137C63.3088 47.5048 62.753 47.55 62.3674 47.2523Z" fill="#8BCAFF"/>
<path d="M57.4793 53.5862C57.4602 53.5715 57.4414 53.5559 57.4232 53.5395C55.4592 51.7683 53.4737 49.4863 51.5218 46.7569C49.5367 43.981 46.9433 42.1664 43.8138 41.363C43.3102 41.2338 43.007 40.7207 43.1361 40.2173C43.2654 39.7137 43.7784 39.4103 44.2818 39.5396C47.8522 40.4562 50.8031 42.5161 53.0528 45.6619C54.9259 48.2811 56.8205 50.4612 58.6838 52.1414C59.0699 52.4897 59.1006 53.0847 58.7525 53.4708C58.421 53.8385 57.865 53.8839 57.4793 53.5862Z" fill="#8BCAFF"/>
<path d="M59.9233 50.4193C59.9041 50.4045 59.8853 50.389 59.8671 50.3725C57.9027 48.6007 55.9172 46.3189 53.9657 43.59C51.9807 40.8143 49.3875 38.9994 46.2577 38.1961C45.7541 38.0667 45.4509 37.5538 45.58 37.0503C45.7093 36.5468 46.2223 36.2434 46.7257 36.3726C50.2961 37.2892 53.247 39.349 55.4967 42.495C57.3694 45.1135 59.264 47.2937 61.1276 48.9746C61.5137 49.3227 61.5444 49.9179 61.1962 50.3039C60.8648 50.6717 60.309 50.717 59.9233 50.4193Z" fill="#8BCAFF"/>
<path d="M55.0353 56.7531C55.0162 56.7384 54.9975 56.7228 54.9792 56.7064C53.0148 54.9348 51.0294 52.6529 49.0778 49.9238C47.0927 47.148 44.4994 45.3333 41.3697 44.53C40.8661 44.4008 40.5629 43.8878 40.6921 43.3842C40.8214 42.8807 41.3343 42.5773 41.8378 42.7066C45.4081 43.6232 48.3592 45.6828 50.6088 48.8288C52.4816 51.4476 54.3762 53.6277 56.2399 55.3083C56.6259 55.6565 56.6566 56.2516 56.3085 56.6377C55.9769 57.0055 55.421 57.0507 55.0353 56.7531Z" fill="#8BCAFF"/>
<path d="M32.8037 4.96837C34.1468 6.18811 37.2354 8.50554 43.2001 10.7817C51.851 14.0828 52.5379 22.2832 52.5379 22.2832L28.5958 53.3072L28.5665 53.2846C28.0969 52.9222 27.7561 52.4209 27.5812 51.854C26.7588 49.1891 24.5466 44.7365 18.7138 42.5106C10.0629 39.2093 7.46174 35.8213 7.46174 35.8213L31.1584 5.11539C31.5594 4.59593 32.3179 4.52713 32.8037 4.96837Z" fill="#DBEDFF"/>
<path d="M35.1258 6.75341C34.0639 6.04332 33.3098 5.42784 32.8037 4.96837C32.3179 4.52712 31.5594 4.59593 31.1585 5.11546L7.46186 35.8214C7.46186 35.8214 8.30988 36.9235 10.6399 38.482L35.1258 6.75341Z" fill="#B5DCFF"/>
<path d="M30.7808 12.77C30.3951 12.4724 30.2979 11.9233 30.5697 11.5092C30.8548 11.0745 31.4384 10.9534 31.8729 11.2385C33.9714 12.6153 36.5605 13.8954 39.5683 15.0433C43.1819 16.4221 45.9224 18.7546 47.714 21.9759C47.9666 22.4302 47.8031 23.0033 47.3488 23.256C46.8945 23.5088 46.3215 23.3451 46.0687 22.8909C44.4984 20.0672 42.0855 18.0187 38.8972 16.8018C35.7628 15.6058 33.0522 14.2635 30.8403 12.8123C30.8198 12.7991 30.7999 12.7848 30.7808 12.77Z" fill="#8BCAFF"/>
<path d="M28.3368 15.9369C27.9512 15.6393 27.854 15.09 28.1258 14.676C28.4111 14.2414 28.9945 14.1203 29.4291 14.4055C31.527 15.7821 34.1161 17.0622 37.1244 18.2102C40.738 19.589 43.4785 21.9215 45.27 25.1428C45.5227 25.5971 45.3592 26.1702 44.9049 26.4229C44.4506 26.6757 43.8775 26.5121 43.6248 26.0578C42.0546 23.2339 39.6415 21.1857 36.4533 19.9687C33.3182 18.7724 30.6075 17.4302 28.3964 15.9792C28.3757 15.9659 28.3559 15.9517 28.3368 15.9369Z" fill="#8BCAFF"/>
<path d="M16.1167 31.7716C15.731 31.474 15.634 30.9248 15.9056 30.5108C16.1908 30.0761 16.7744 29.9549 17.2089 30.2401C19.3075 31.617 21.8966 32.8971 24.9043 34.0447C28.5176 35.4236 31.2582 37.7561 33.0498 40.9774C33.3025 41.4317 33.139 42.0048 32.6847 42.2575C32.2304 42.5102 31.6573 42.3467 31.4046 41.8924C29.8342 39.0688 27.4214 37.0199 24.2331 35.8032C21.0988 34.6073 18.3881 33.2651 16.1762 31.8138C16.1557 31.8006 16.1358 31.7864 16.1167 31.7716Z" fill="#8BCAFF"/>
<path d="M13.6727 34.9386C13.287 34.641 13.1899 34.0918 13.4616 33.6778C13.7467 33.2431 14.3303 33.1219 14.7649 33.4071C16.8633 34.7839 19.4524 36.064 22.4602 37.2118C26.0738 38.5907 28.8143 40.9232 30.6059 44.1445C30.8585 44.5988 30.6951 45.1719 30.2407 45.4246C29.7864 45.6773 29.2134 45.5137 28.9606 45.0595C27.3904 42.2356 24.9773 40.1873 21.7891 38.9704C18.6547 37.7744 15.9441 36.4321 13.7322 34.9809C13.7117 34.9675 13.6918 34.9533 13.6727 34.9386Z" fill="#8BCAFF"/>
<path d="M25.8928 19.1039C25.5071 18.8063 25.41 18.2571 25.6817 17.8431C25.9668 17.4084 26.5504 17.2872 26.985 17.5724C29.0836 18.9493 31.6726 20.2293 34.6803 21.377C38.2936 22.7559 41.0343 25.0884 42.8259 28.3097C43.0785 28.764 42.9151 29.3371 42.4607 29.5898C42.0065 29.8425 41.4334 29.679 41.1806 29.2247C39.6103 26.401 37.1975 24.3522 34.0092 23.1355C30.8749 21.9396 28.1642 20.5974 25.9522 19.1461C25.9318 19.1329 25.9119 19.1186 25.8928 19.1039Z" fill="#8BCAFF"/>
<path d="M21.0047 25.4378C20.619 25.1401 20.5219 24.5909 20.7937 24.1768C21.0789 23.7422 21.6624 23.6211 22.0971 23.9062C24.1949 25.283 26.7839 26.563 29.7923 27.711C33.4059 29.0897 36.1463 31.4223 37.9379 34.6437C38.1906 35.0979 38.0271 35.671 37.5728 35.9238C37.1184 36.1765 36.5453 36.0131 36.2927 35.5586C34.7225 32.7348 32.3094 30.6865 29.1211 29.4696C25.9861 28.2732 23.2754 26.931 21.0642 25.4801C21.0436 25.4667 21.0238 25.4525 21.0047 25.4378Z" fill="#8BCAFF"/>
<path d="M23.4487 22.2709C23.063 21.9732 22.9659 21.4242 23.2376 21.01C23.5228 20.5753 24.1064 20.4542 24.5409 20.7394C26.6394 22.1162 29.2285 23.3962 32.2363 24.5441C35.8497 25.9229 38.5904 28.2553 40.3819 31.4768C40.6345 31.931 40.4711 32.5041 40.0168 32.7569C39.5624 33.0096 38.9894 32.8461 38.7367 32.3917C37.1663 29.5678 34.7533 27.5194 31.5652 26.3028C28.4308 25.1068 25.7201 23.7644 23.5084 22.3132C23.4877 22.2999 23.4678 22.2856 23.4487 22.2709Z" fill="#8BCAFF"/>
<path d="M18.5607 28.6046C18.1751 28.307 18.0778 27.7579 18.3497 27.3437C18.635 26.9091 19.2184 26.788 19.6531 27.0731C21.7513 28.45 24.3403 29.73 27.3483 30.8779C30.9616 32.2568 33.7023 34.5893 35.4939 37.8106C35.7465 38.2649 35.5831 38.838 35.1287 39.0907C34.6744 39.3435 34.1013 39.18 33.8486 38.7256C32.2783 35.902 29.8654 33.8532 26.6772 32.6364C23.5425 31.4404 20.8318 30.0982 18.6202 28.647C18.5996 28.6336 18.5798 28.6194 18.5607 28.6046Z" fill="#8BCAFF"/>
</svg>
